<svg width="36" height="13" viewBox="0 0 36 13" fill="none" xmlns="http://www.w3.org/2000/svg">
<path d="M6.22186 12.4437C9.65809 12.4437 12.4437 9.65809 12.4437 6.22186C12.4437 2.78562 9.65809 0 6.22186 0C2.78562 0 0 2.78562 0 6.22186C0 9.65809 2.78562 12.4437 6.22186 12.4437Z" fill="#EE312A"/>
<path d="M6.22199 8.87611C4.83108 5.7232 3.81109 2.77795 3.81109 2.77795H1.67859C1.67859 2.77795 2.97654 6.55836 5.38745 11.286H7.05654C9.46744 6.55836 10.7654 2.77795 10.7654 2.77795H8.6329C8.6329 2.77795 7.6129 5.7232 6.22199 8.87611Z" fill="white"/>
<path d="M35.9487 8.48167H31.7931C31.7931 8.48167 31.8854 9.87804 33.7324 9.87804C34.6558 9.87804 35.5793 9.59856 35.5793 9.59856L35.764 11.0877C35.764 11.0877 34.8405 11.46 33.5477 11.46C31.7008 11.46 30.0386 10.5293 30.0386 7.92323C30.0386 5.87559 31.3314 4.57257 33.1783 4.57257C35.9487 4.57257 36.1334 7.36478 35.9487 8.48167ZM33.086 5.87559C31.8854 5.87559 31.7931 7.17861 31.7931 7.17861H34.3788C34.3788 7.17861 34.2864 5.87559 33.086 5.87559Z" fill="white"/>
<path d="M21.601 6.28684L21.8779 4.80553C21.8779 4.80553 19.7388 4.15463 18.0001 5.36102V11.2861H19.8468L19.8466 6.47199C20.5852 5.91651 21.601 6.28684 21.601 6.28684Z" fill="white"/>
<path d="M16.5598 8.48167H12.4043C12.4043 8.48167 12.4966 9.87804 14.3435 9.87804C15.2669 9.87804 16.1903 9.59856 16.1903 9.59856L16.3751 11.0877C16.3751 11.0877 15.4516 11.46 14.1588 11.46C12.3119 11.46 10.6497 10.5293 10.6497 7.92323C10.6497 5.87559 11.9425 4.57257 13.7894 4.57257C16.5598 4.57257 16.7444 7.36478 16.5598 8.48167ZM13.697 5.87559C12.4966 5.87559 12.4043 7.17861 12.4043 7.17861H14.9899C14.9899 7.17861 14.8976 5.87559 13.697 5.87559Z" fill="white"/>
<path d="M26.103 9.06386C25.5272 7.66326 25.0628 6.21946 24.7138 4.74585L22.8618 4.74609C22.8618 4.74609 23.7879 8.32254 25.3623 11.286H26.8436C28.4181 8.32254 29.3441 4.74675 29.3441 4.74675H27.4921C27.1431 6.22004 26.6786 7.66355 26.103 9.06386Z" fill="white"/>
</svg>
