<svg width="76" height="72" viewBox="0 0 76 72" fill="none" xmlns="http://www.w3.org/2000/svg">
<path d="M46 72C42.6667 72 39.8333 70.8333 37.5 68.5C35.1667 66.1667 34 63.3333 34 60C34 56.6667 35.1667 53.8333 37.5 51.5C39.8333 49.1667 42.6667 48 46 48C49.3333 48 52.1667 49.1667 54.5 51.5C56.8333 53.8333 58 56.6667 58 60C58 63.3333 56.8333 66.1667 54.5 68.5C52.1667 70.8333 49.3333 72 46 72ZM54 44C47.8667 44 42.6667 41.8667 38.4 37.6C34.1333 33.3333 32 28.1333 32 22C32 15.8667 34.1333 10.6667 38.4 6.4C42.6667 2.13333 47.8667 0 54 0C60.1333 0 65.3333 2.13333 69.6 6.4C73.8667 10.6667 76 15.8667 76 22C76 28.1333 73.8667 33.3333 69.6 37.6C65.3333 41.8667 60.1333 44 54 44ZM16 60C11.6 60 7.83333 58.4333 4.7 55.3C1.56667 52.1667 0 48.4 0 44C0 39.6 1.56667 35.8333 4.7 32.7C7.83333 29.5667 11.6 28 16 28C20.4 28 24.1667 29.5667 27.3 32.7C30.4333 35.8333 32 39.6 32 44C32 48.4 30.4333 52.1667 27.3 55.3C24.1667 58.4333 20.4 60 16 60Z" fill="#001587"/>
</svg>
