<svg width="342" height="86" viewBox="0 0 342 86" fill="none" xmlns="http://www.w3.org/2000/svg">
<path d="M56.265 61C54.5983 61 53.1817 60.4167 52.015 59.25C50.8483 58.0833 50.265 56.6667 50.265 55C50.265 53.3333 50.8483 51.9167 52.015 50.75C53.1817 49.5833 54.5983 49 56.265 49C57.9317 49 59.3483 49.5833 60.515 50.75C61.6817 51.9167 62.265 53.3333 62.265 55C62.265 56.6667 61.6817 58.0833 60.515 59.25C59.3483 60.4167 57.9317 61 56.265 61ZM60.265 47C57.1983 47 54.5983 45.9333 52.465 43.8C50.3317 41.6667 49.265 39.0667 49.265 36C49.265 32.9333 50.3317 30.3333 52.465 28.2C54.5983 26.0667 57.1983 25 60.265 25C63.3317 25 65.9317 26.0667 68.065 28.2C70.1983 30.3333 71.265 32.9333 71.265 36C71.265 39.0667 70.1983 41.6667 68.065 43.8C65.9317 45.9333 63.3317 47 60.265 47ZM41.265 55C39.065 55 37.1817 54.2167 35.615 52.65C34.0483 51.0833 33.265 49.2 33.265 47C33.265 44.8 34.0483 42.9167 35.615 41.35C37.1817 39.7833 39.065 39 41.265 39C43.465 39 45.3483 39.7833 46.915 41.35C48.4817 42.9167 49.265 44.8 49.265 47C49.265 49.2 48.4817 51.0833 46.915 52.65C45.3483 54.2167 43.465 55 41.265 55Z" fill="#0D1120"/>
<path d="M111.681 61.72C109.121 61.72 106.813 61.268 104.757 60.364C102.701 59.46 101.013 58.164 99.693 56.476C98.373 54.788 97.537 52.776 97.185 50.44L104.001 49.432C104.481 51.416 105.473 52.944 106.977 54.016C108.481 55.088 110.193 55.624 112.113 55.624C113.185 55.624 114.225 55.456 115.233 55.12C116.241 54.784 117.069 54.288 117.717 53.632C118.365 52.976 118.689 52.168 118.689 51.208C118.689 50.856 118.637 50.516 118.533 50.188C118.429 49.86 118.257 49.552 118.017 49.264C117.777 48.976 117.437 48.704 116.997 48.448C116.557 48.192 116.001 47.96 115.329 47.752L106.353 45.112C105.681 44.92 104.901 44.648 104.013 44.296C103.125 43.944 102.265 43.44 101.433 42.784C100.601 42.128 99.909 41.26 99.357 40.18C98.805 39.1 98.529 37.736 98.529 36.088C98.529 33.768 99.113 31.84 100.281 30.304C101.449 28.768 103.009 27.624 104.961 26.872C106.913 26.12 109.073 25.752 111.441 25.768C113.825 25.8 115.953 26.208 117.825 26.992C119.697 27.776 121.265 28.916 122.529 30.412C123.793 31.908 124.705 33.736 125.265 35.896L118.209 37.096C117.953 35.976 117.481 35.032 116.793 34.264C116.105 33.496 115.285 32.912 114.333 32.512C113.381 32.112 112.385 31.896 111.345 31.864C110.321 31.832 109.357 31.972 108.453 32.284C107.549 32.596 106.813 33.048 106.245 33.64C105.677 34.232 105.393 34.936 105.393 35.752C105.393 36.504 105.625 37.116 106.089 37.588C106.553 38.06 107.137 38.44 107.841 38.728C108.545 39.016 109.265 39.256 110.001 39.448L116.001 41.08C116.897 41.32 117.889 41.636 118.977 42.028C120.065 42.42 121.109 42.964 122.109 43.66C123.109 44.356 123.933 45.272 124.581 46.408C125.229 47.544 125.553 48.984 125.553 50.728C125.553 52.584 125.165 54.204 124.389 55.588C123.613 56.972 122.569 58.116 121.257 59.02C119.945 59.924 118.461 60.6 116.805 61.048C115.149 61.496 113.441 61.72 111.681 61.72ZM138.081 61.768C136.049 61.768 134.393 61.424 133.113 60.736C131.833 60.048 130.837 59.176 130.125 58.12C129.413 57.064 128.905 55.964 128.601 54.82C128.297 53.676 128.113 52.632 128.049 51.688C127.985 50.744 127.953 50.056 127.953 49.624V35.08H134.577V47.32C134.577 47.912 134.609 48.668 134.673 49.588C134.737 50.508 134.937 51.432 135.273 52.36C135.609 53.288 136.157 54.064 136.917 54.688C137.677 55.312 138.753 55.624 140.145 55.624C140.705 55.624 141.305 55.536 141.945 55.36C142.585 55.184 143.185 54.844 143.745 54.34C144.305 53.836 144.765 53.092 145.125 52.108C145.485 51.124 145.665 49.832 145.665 48.232L149.409 50.008C149.409 52.056 148.993 53.976 148.161 55.768C147.329 57.56 146.077 59.008 144.405 60.112C142.733 61.216 140.625 61.768 138.081 61.768ZM146.481 61V52.408H145.665V35.08H152.241V61H146.481ZM169.281 61.72C166.705 61.72 164.553 61.12 162.825 59.92C161.097 58.72 159.797 57.088 158.925 55.024C158.053 52.96 157.617 50.632 157.617 48.04C157.617 45.448 158.049 43.12 158.913 41.056C159.777 38.992 161.049 37.36 162.729 36.16C164.409 34.96 166.481 34.36 168.945 34.36C171.425 34.36 173.585 34.952 175.425 36.136C177.265 37.32 178.693 38.94 179.709 40.996C180.725 43.052 181.233 45.4 181.233 48.04C181.233 50.632 180.733 52.96 179.733 55.024C178.733 57.088 177.337 58.72 175.545 59.92C173.753 61.12 171.665 61.72 169.281 61.72ZM156.513 61V26.44H163.089V43.24H162.273V61H156.513ZM168.225 55.912C169.633 55.912 170.785 55.56 171.681 54.856C172.577 54.152 173.241 53.204 173.673 52.012C174.105 50.82 174.321 49.496 174.321 48.04C174.321 46.6 174.097 45.284 173.649 44.092C173.201 42.9 172.509 41.948 171.573 41.236C170.637 40.524 169.441 40.168 167.985 40.168C166.625 40.168 165.525 40.496 164.685 41.152C163.845 41.808 163.233 42.728 162.849 43.912C162.465 45.096 162.273 46.472 162.273 48.04C162.273 49.608 162.465 50.984 162.849 52.168C163.233 53.352 163.861 54.272 164.733 54.928C165.605 55.584 166.769 55.912 168.225 55.912ZM193.521 61.72C190.257 61.72 187.621 60.98 185.613 59.5C183.605 58.02 182.385 55.928 181.953 53.224L188.625 52.216C188.897 53.432 189.501 54.384 190.437 55.072C191.373 55.76 192.561 56.104 194.001 56.104C195.185 56.104 196.097 55.876 196.737 55.42C197.377 54.964 197.697 54.328 197.697 53.512C197.697 53 197.569 52.588 197.313 52.276C197.057 51.964 196.485 51.656 195.597 51.352C194.709 51.048 193.329 50.648 191.457 50.152C189.345 49.608 187.657 49 186.393 48.328C185.129 47.656 184.217 46.852 183.657 45.916C183.097 44.98 182.817 43.848 182.817 42.52C182.817 40.856 183.241 39.412 184.089 38.188C184.937 36.964 186.133 36.02 187.677 35.356C189.221 34.692 191.041 34.36 193.137 34.36C195.169 34.36 196.969 34.672 198.537 35.296C200.105 35.92 201.373 36.808 202.341 37.96C203.309 39.112 203.905 40.472 204.129 42.04L197.457 43.24C197.345 42.28 196.929 41.52 196.209 40.96C195.489 40.4 194.513 40.072 193.281 39.976C192.081 39.896 191.117 40.056 190.389 40.456C189.661 40.856 189.297 41.432 189.297 42.184C189.297 42.632 189.453 43.008 189.765 43.312C190.077 43.616 190.725 43.928 191.709 44.248C192.693 44.568 194.193 44.984 196.209 45.496C198.177 46.008 199.757 46.604 200.949 47.284C202.141 47.964 203.009 48.78 203.553 49.732C204.097 50.684 204.369 51.832 204.369 53.176C204.369 55.832 203.409 57.92 201.489 59.44C199.569 60.96 196.913 61.72 193.521 61.72ZM219.297 61.72C216.641 61.72 214.301 61.148 212.277 60.004C210.253 58.86 208.669 57.284 207.525 55.276C206.381 53.268 205.809 50.968 205.809 48.376C205.809 45.544 206.369 43.08 207.489 40.984C208.609 38.888 210.153 37.26 212.121 36.1C214.089 34.94 216.353 34.36 218.913 34.36C221.633 34.36 223.945 35 225.849 36.28C227.753 37.56 229.161 39.36 230.073 41.68C230.985 44 231.305 46.728 231.033 49.864H224.577V47.464C224.577 44.824 224.157 42.924 223.317 41.764C222.477 40.604 221.105 40.024 219.201 40.024C216.977 40.024 215.341 40.7 214.293 42.052C213.245 43.404 212.721 45.4 212.721 48.04C212.721 50.456 213.245 52.324 214.293 53.644C215.341 54.964 216.881 55.624 218.913 55.624C220.193 55.624 221.289 55.344 222.201 54.784C223.113 54.224 223.809 53.416 224.289 52.36L230.817 54.232C229.841 56.6 228.301 58.44 226.197 59.752C224.093 61.064 221.793 61.72 219.297 61.72ZM210.705 49.864V45.016H227.889V49.864H210.705ZM250.977 61V48.76C250.977 48.168 250.945 47.412 250.881 46.492C250.817 45.572 250.617 44.648 250.281 43.72C249.945 42.792 249.397 42.016 248.637 41.392C247.877 40.768 246.801 40.456 245.409 40.456C244.849 40.456 244.249 40.544 243.609 40.72C242.969 40.896 242.369 41.236 241.809 41.74C241.249 42.244 240.789 42.984 240.429 43.96C240.069 44.936 239.889 46.232 239.889 47.848L236.145 46.072C236.145 44.024 236.561 42.104 237.393 40.312C238.225 38.52 239.477 37.072 241.149 35.968C242.821 34.864 244.929 34.312 247.473 34.312C249.505 34.312 251.161 34.656 252.441 35.344C253.721 36.032 254.717 36.904 255.429 37.96C256.141 39.016 256.649 40.116 256.953 41.26C257.257 42.404 257.441 43.448 257.505 44.392C257.569 45.336 257.601 46.024 257.601 46.456V61H250.977ZM233.265 61V35.08H239.073V43.672H239.889V61H233.265ZM271.569 61.72C268.305 61.72 265.669 60.98 263.661 59.5C261.653 58.02 260.433 55.928 260.001 53.224L266.673 52.216C266.945 53.432 267.549 54.384 268.485 55.072C269.421 55.76 270.609 56.104 272.049 56.104C273.233 56.104 274.145 55.876 274.785 55.42C275.425 54.964 275.745 54.328 275.745 53.512C275.745 53 275.617 52.588 275.361 52.276C275.105 51.964 274.533 51.656 273.645 51.352C272.757 51.048 271.377 50.648 269.505 50.152C267.393 49.608 265.705 49 264.441 48.328C263.177 47.656 262.265 46.852 261.705 45.916C261.145 44.98 260.865 43.848 260.865 42.52C260.865 40.856 261.289 39.412 262.137 38.188C262.985 36.964 264.181 36.02 265.725 35.356C267.269 34.692 269.089 34.36 271.185 34.36C273.217 34.36 275.017 34.672 276.585 35.296C278.153 35.92 279.421 36.808 280.389 37.96C281.357 39.112 281.953 40.472 282.177 42.04L275.505 43.24C275.393 42.28 274.977 41.52 274.257 40.96C273.537 40.4 272.561 40.072 271.329 39.976C270.129 39.896 269.165 40.056 268.437 40.456C267.709 40.856 267.345 41.432 267.345 42.184C267.345 42.632 267.501 43.008 267.813 43.312C268.125 43.616 268.773 43.928 269.757 44.248C270.741 44.568 272.241 44.984 274.257 45.496C276.225 46.008 277.805 46.604 278.997 47.284C280.189 47.964 281.057 48.78 281.601 49.732C282.145 50.684 282.417 51.832 282.417 53.176C282.417 55.832 281.457 57.92 279.537 59.44C277.617 60.96 274.961 61.72 271.569 61.72ZM297.345 61.72C294.689 61.72 292.349 61.148 290.325 60.004C288.301 58.86 286.717 57.284 285.573 55.276C284.429 53.268 283.857 50.968 283.857 48.376C283.857 45.544 284.417 43.08 285.537 40.984C286.657 38.888 288.201 37.26 290.169 36.1C292.137 34.94 294.401 34.36 296.961 34.36C299.681 34.36 301.993 35 303.897 36.28C305.801 37.56 307.209 39.36 308.121 41.68C309.033 44 309.353 46.728 309.081 49.864H302.625V47.464C302.625 44.824 302.205 42.924 301.365 41.764C300.525 40.604 299.153 40.024 297.249 40.024C295.025 40.024 293.389 40.7 292.341 42.052C291.293 43.404 290.769 45.4 290.769 48.04C290.769 50.456 291.293 52.324 292.341 53.644C293.389 54.964 294.929 55.624 296.961 55.624C298.241 55.624 299.337 55.344 300.249 54.784C301.161 54.224 301.857 53.416 302.337 52.36L308.865 54.232C307.889 56.6 306.349 58.44 304.245 59.752C302.141 61.064 299.841 61.72 297.345 61.72ZM288.753 49.864V45.016H305.937V49.864H288.753Z" fill="#0D1120"/>
</svg>
