<svg width="342" height="48" viewBox="0 0 342 48" fill="none" xmlns="http://www.w3.org/2000/svg">
<path d="M56.265 42C54.5983 42 53.1817 41.4167 52.015 40.25C50.8483 39.0833 50.265 37.6667 50.265 36C50.265 34.3333 50.8483 32.9167 52.015 31.75C53.1817 30.5833 54.5983 30 56.265 30C57.9317 30 59.3483 30.5833 60.515 31.75C61.6817 32.9167 62.265 34.3333 62.265 36C62.265 37.6667 61.6817 39.0833 60.515 40.25C59.3483 41.4167 57.9317 42 56.265 42ZM60.265 28C57.1983 28 54.5983 26.9333 52.465 24.8C50.3317 22.6667 49.265 20.0667 49.265 17C49.265 13.9333 50.3317 11.3333 52.465 9.2C54.5983 7.06667 57.1983 6 60.265 6C63.3317 6 65.9317 7.06667 68.065 9.2C70.1983 11.3333 71.265 13.9333 71.265 17C71.265 20.0667 70.1983 22.6667 68.065 24.8C65.9317 26.9333 63.3317 28 60.265 28ZM41.265 36C39.065 36 37.1817 35.2167 35.615 33.65C34.0483 32.0833 33.265 30.2 33.265 28C33.265 25.8 34.0483 23.9167 35.615 22.35C37.1817 20.7833 39.065 20 41.265 20C43.465 20 45.3483 20.7833 46.915 22.35C48.4817 23.9167 49.265 25.8 49.265 28C49.265 30.2 48.4817 32.0833 46.915 33.65C45.3483 35.2167 43.465 36 41.265 36Z" fill="#5B6EF5"/>
<path d="M111.681 42.72C109.121 42.72 106.813 42.268 104.757 41.364C102.701 40.46 101.013 39.164 99.693 37.476C98.373 35.788 97.537 33.776 97.185 31.44L104.001 30.432C104.481 32.416 105.473 33.944 106.977 35.016C108.481 36.088 110.193 36.624 112.113 36.624C113.185 36.624 114.225 36.456 115.233 36.12C116.241 35.784 117.069 35.288 117.717 34.632C118.365 33.976 118.689 33.168 118.689 32.208C118.689 31.856 118.637 31.516 118.533 31.188C118.429 30.86 118.257 30.552 118.017 30.264C117.777 29.976 117.437 29.704 116.997 29.448C116.557 29.192 116.001 28.96 115.329 28.752L106.353 26.112C105.681 25.92 104.901 25.648 104.013 25.296C103.125 24.944 102.265 24.44 101.433 23.784C100.601 23.128 99.909 22.26 99.357 21.18C98.805 20.1 98.529 18.736 98.529 17.088C98.529 14.768 99.113 12.84 100.281 11.304C101.449 9.768 103.009 8.624 104.961 7.872C106.913 7.12 109.073 6.752 111.441 6.768C113.825 6.8 115.953 7.208 117.825 7.992C119.697 8.776 121.265 9.916 122.529 11.412C123.793 12.908 124.705 14.736 125.265 16.896L118.209 18.096C117.953 16.976 117.481 16.032 116.793 15.264C116.105 14.496 115.285 13.912 114.333 13.512C113.381 13.112 112.385 12.896 111.345 12.864C110.321 12.832 109.357 12.972 108.453 13.284C107.549 13.596 106.813 14.048 106.245 14.64C105.677 15.232 105.393 15.936 105.393 16.752C105.393 17.504 105.625 18.116 106.089 18.588C106.553 19.06 107.137 19.44 107.841 19.728C108.545 20.016 109.265 20.256 110.001 20.448L116.001 22.08C116.897 22.32 117.889 22.636 118.977 23.028C120.065 23.42 121.109 23.964 122.109 24.66C123.109 25.356 123.933 26.272 124.581 27.408C125.229 28.544 125.553 29.984 125.553 31.728C125.553 33.584 125.165 35.204 124.389 36.588C123.613 37.972 122.569 39.116 121.257 40.02C119.945 40.924 118.461 41.6 116.805 42.048C115.149 42.496 113.441 42.72 111.681 42.72ZM138.081 42.768C136.049 42.768 134.393 42.424 133.113 41.736C131.833 41.048 130.837 40.176 130.125 39.12C129.413 38.064 128.905 36.964 128.601 35.82C128.297 34.676 128.113 33.632 128.049 32.688C127.985 31.744 127.953 31.056 127.953 30.624V16.08H134.577V28.32C134.577 28.912 134.609 29.668 134.673 30.588C134.737 31.508 134.937 32.432 135.273 33.36C135.609 34.288 136.157 35.064 136.917 35.688C137.677 36.312 138.753 36.624 140.145 36.624C140.705 36.624 141.305 36.536 141.945 36.36C142.585 36.184 143.185 35.844 143.745 35.34C144.305 34.836 144.765 34.092 145.125 33.108C145.485 32.124 145.665 30.832 145.665 29.232L149.409 31.008C149.409 33.056 148.993 34.976 148.161 36.768C147.329 38.56 146.077 40.008 144.405 41.112C142.733 42.216 140.625 42.768 138.081 42.768ZM146.481 42V33.408H145.665V16.08H152.241V42H146.481ZM169.281 42.72C166.705 42.72 164.553 42.12 162.825 40.92C161.097 39.72 159.797 38.088 158.925 36.024C158.053 33.96 157.617 31.632 157.617 29.04C157.617 26.448 158.049 24.12 158.913 22.056C159.777 19.992 161.049 18.36 162.729 17.16C164.409 15.96 166.481 15.36 168.945 15.36C171.425 15.36 173.585 15.952 175.425 17.136C177.265 18.32 178.693 19.94 179.709 21.996C180.725 24.052 181.233 26.4 181.233 29.04C181.233 31.632 180.733 33.96 179.733 36.024C178.733 38.088 177.337 39.72 175.545 40.92C173.753 42.12 171.665 42.72 169.281 42.72ZM156.513 42V7.44H163.089V24.24H162.273V42H156.513ZM168.225 36.912C169.633 36.912 170.785 36.56 171.681 35.856C172.577 35.152 173.241 34.204 173.673 33.012C174.105 31.82 174.321 30.496 174.321 29.04C174.321 27.6 174.097 26.284 173.649 25.092C173.201 23.9 172.509 22.948 171.573 22.236C170.637 21.524 169.441 21.168 167.985 21.168C166.625 21.168 165.525 21.496 164.685 22.152C163.845 22.808 163.233 23.728 162.849 24.912C162.465 26.096 162.273 27.472 162.273 29.04C162.273 30.608 162.465 31.984 162.849 33.168C163.233 34.352 163.861 35.272 164.733 35.928C165.605 36.584 166.769 36.912 168.225 36.912ZM193.521 42.72C190.257 42.72 187.621 41.98 185.613 40.5C183.605 39.02 182.385 36.928 181.953 34.224L188.625 33.216C188.897 34.432 189.501 35.384 190.437 36.072C191.373 36.76 192.561 37.104 194.001 37.104C195.185 37.104 196.097 36.876 196.737 36.42C197.377 35.964 197.697 35.328 197.697 34.512C197.697 34 197.569 33.588 197.313 33.276C197.057 32.964 196.485 32.656 195.597 32.352C194.709 32.048 193.329 31.648 191.457 31.152C189.345 30.608 187.657 30 186.393 29.328C185.129 28.656 184.217 27.852 183.657 26.916C183.097 25.98 182.817 24.848 182.817 23.52C182.817 21.856 183.241 20.412 184.089 19.188C184.937 17.964 186.133 17.02 187.677 16.356C189.221 15.692 191.041 15.36 193.137 15.36C195.169 15.36 196.969 15.672 198.537 16.296C200.105 16.92 201.373 17.808 202.341 18.96C203.309 20.112 203.905 21.472 204.129 23.04L197.457 24.24C197.345 23.28 196.929 22.52 196.209 21.96C195.489 21.4 194.513 21.072 193.281 20.976C192.081 20.896 191.117 21.056 190.389 21.456C189.661 21.856 189.297 22.432 189.297 23.184C189.297 23.632 189.453 24.008 189.765 24.312C190.077 24.616 190.725 24.928 191.709 25.248C192.693 25.568 194.193 25.984 196.209 26.496C198.177 27.008 199.757 27.604 200.949 28.284C202.141 28.964 203.009 29.78 203.553 30.732C204.097 31.684 204.369 32.832 204.369 34.176C204.369 36.832 203.409 38.92 201.489 40.44C199.569 41.96 196.913 42.72 193.521 42.72ZM219.297 42.72C216.641 42.72 214.301 42.148 212.277 41.004C210.253 39.86 208.669 38.284 207.525 36.276C206.381 34.268 205.809 31.968 205.809 29.376C205.809 26.544 206.369 24.08 207.489 21.984C208.609 19.888 210.153 18.26 212.121 17.1C214.089 15.94 216.353 15.36 218.913 15.36C221.633 15.36 223.945 16 225.849 17.28C227.753 18.56 229.161 20.36 230.073 22.68C230.985 25 231.305 27.728 231.033 30.864H224.577V28.464C224.577 25.824 224.157 23.924 223.317 22.764C222.477 21.604 221.105 21.024 219.201 21.024C216.977 21.024 215.341 21.7 214.293 23.052C213.245 24.404 212.721 26.4 212.721 29.04C212.721 31.456 213.245 33.324 214.293 34.644C215.341 35.964 216.881 36.624 218.913 36.624C220.193 36.624 221.289 36.344 222.201 35.784C223.113 35.224 223.809 34.416 224.289 33.36L230.817 35.232C229.841 37.6 228.301 39.44 226.197 40.752C224.093 42.064 221.793 42.72 219.297 42.72ZM210.705 30.864V26.016H227.889V30.864H210.705ZM250.977 42V29.76C250.977 29.168 250.945 28.412 250.881 27.492C250.817 26.572 250.617 25.648 250.281 24.72C249.945 23.792 249.397 23.016 248.637 22.392C247.877 21.768 246.801 21.456 245.409 21.456C244.849 21.456 244.249 21.544 243.609 21.72C242.969 21.896 242.369 22.236 241.809 22.74C241.249 23.244 240.789 23.984 240.429 24.96C240.069 25.936 239.889 27.232 239.889 28.848L236.145 27.072C236.145 25.024 236.561 23.104 237.393 21.312C238.225 19.52 239.477 18.072 241.149 16.968C242.821 15.864 244.929 15.312 247.473 15.312C249.505 15.312 251.161 15.656 252.441 16.344C253.721 17.032 254.717 17.904 255.429 18.96C256.141 20.016 256.649 21.116 256.953 22.26C257.257 23.404 257.441 24.448 257.505 25.392C257.569 26.336 257.601 27.024 257.601 27.456V42H250.977ZM233.265 42V16.08H239.073V24.672H239.889V42H233.265ZM271.569 42.72C268.305 42.72 265.669 41.98 263.661 40.5C261.653 39.02 260.433 36.928 260.001 34.224L266.673 33.216C266.945 34.432 267.549 35.384 268.485 36.072C269.421 36.76 270.609 37.104 272.049 37.104C273.233 37.104 274.145 36.876 274.785 36.42C275.425 35.964 275.745 35.328 275.745 34.512C275.745 34 275.617 33.588 275.361 33.276C275.105 32.964 274.533 32.656 273.645 32.352C272.757 32.048 271.377 31.648 269.505 31.152C267.393 30.608 265.705 30 264.441 29.328C263.177 28.656 262.265 27.852 261.705 26.916C261.145 25.98 260.865 24.848 260.865 23.52C260.865 21.856 261.289 20.412 262.137 19.188C262.985 17.964 264.181 17.02 265.725 16.356C267.269 15.692 269.089 15.36 271.185 15.36C273.217 15.36 275.017 15.672 276.585 16.296C278.153 16.92 279.421 17.808 280.389 18.96C281.357 20.112 281.953 21.472 282.177 23.04L275.505 24.24C275.393 23.28 274.977 22.52 274.257 21.96C273.537 21.4 272.561 21.072 271.329 20.976C270.129 20.896 269.165 21.056 268.437 21.456C267.709 21.856 267.345 22.432 267.345 23.184C267.345 23.632 267.501 24.008 267.813 24.312C268.125 24.616 268.773 24.928 269.757 25.248C270.741 25.568 272.241 25.984 274.257 26.496C276.225 27.008 277.805 27.604 278.997 28.284C280.189 28.964 281.057 29.78 281.601 30.732C282.145 31.684 282.417 32.832 282.417 34.176C282.417 36.832 281.457 38.92 279.537 40.44C277.617 41.96 274.961 42.72 271.569 42.72ZM297.345 42.72C294.689 42.72 292.349 42.148 290.325 41.004C288.301 39.86 286.717 38.284 285.573 36.276C284.429 34.268 283.857 31.968 283.857 29.376C283.857 26.544 284.417 24.08 285.537 21.984C286.657 19.888 288.201 18.26 290.169 17.1C292.137 15.94 294.401 15.36 296.961 15.36C299.681 15.36 301.993 16 303.897 17.28C305.801 18.56 307.209 20.36 308.121 22.68C309.033 25 309.353 27.728 309.081 30.864H302.625V28.464C302.625 25.824 302.205 23.924 301.365 22.764C300.525 21.604 299.153 21.024 297.249 21.024C295.025 21.024 293.389 21.7 292.341 23.052C291.293 24.404 290.769 26.4 290.769 29.04C290.769 31.456 291.293 33.324 292.341 34.644C293.389 35.964 294.929 36.624 296.961 36.624C298.241 36.624 299.337 36.344 300.249 35.784C301.161 35.224 301.857 34.416 302.337 33.36L308.865 35.232C307.889 37.6 306.349 39.44 304.245 40.752C302.141 42.064 299.841 42.72 297.345 42.72ZM288.753 30.864V26.016H305.937V30.864H288.753Z" fill="#EEF0F8"/>
</svg>
