<svg xmlns="http://www.w3.org/2000/svg" width="96" height="96" viewBox="0 0 96 96" fill="none"><rect width="96" height="96" rx="21.12" fill="#0D1120"/><path d="M51 61.5C49.75 61.5 48.6875 61.0625 47.8125 60.1875C46.9375 59.3125 46.5 58.25 46.5 57C46.5 55.75 46.9375 54.6875 47.8125 53.8125C48.6875 52.9375 49.75 52.5 51 52.5C52.25 52.5 53.3125 52.9375 54.1875 53.8125C55.0625 54.6875 55.5 55.75 55.5 57C55.5 58.25 55.0625 59.3125 54.1875 60.1875C53.3125 61.0625 52.25 61.5 51 61.5ZM54 51C51.7 51 49.75 50.2 48.15 48.6C46.55 47 45.75 45.05 45.75 42.75C45.75 40.45 46.55 38.5 48.15 36.9C49.75 35.3 51.7 34.5 54 34.5C56.3 34.5 58.25 35.3 59.85 36.9C61.45 38.5 62.25 40.45 62.25 42.75C62.25 45.05 61.45 47 59.85 48.6C58.25 50.2 56.3 51 54 51ZM39.75 57C38.1 57 36.6875 56.4125 35.5125 55.2375C34.3375 54.0625 33.75 52.65 33.75 51C33.75 49.35 34.3375 47.9375 35.5125 46.7625C36.6875 45.5875 38.1 45 39.75 45C41.4 45 42.8125 45.5875 43.9875 46.7625C45.1625 47.9375 45.75 49.35 45.75 51C45.75 52.65 45.1625 54.0625 43.9875 55.2375C42.8125 56.4125 41.4 57 39.75 57Z" fill="#BCC2FF"/></svg>